name D:\PhD\Datasets\SharingData_IBEC_VALDUCE\RM1_Healthy_0001.mot
datacolumns 46
datarows 7
range 0.01000000 0.07000000
endheader
                time	         pelvis_tilt	     pelvis_rotation	           pelvis_tx	           pelvis_ty	           pelvis_tz	       hip_flexion_r	     hip_adduction_r	      hip_rotation_r	        knee_angle_r	       ankle_angle_r	    subtalar_angle_r	         mtp_angle_r	       hip_flexion_l	     hip_adduction_l	      hip_rotation_l	        knee_angle_l	       ankle_angle_l	    subtalar_angle_l	         mtp_angle_l	    lumbar_extension	      lumbar_bending	     lumbar_rotation	          arm_flex_r	           arm_add_r	           arm_rot_r	        elbow_flex_r	           pro_sup_r	        wrist_flex_r	         wrist_dev_r	          arm_flex_l	           arm_add_l	           arm_rot_l	        elbow_flex_l	           pro_sup_l	        wrist_flex_l	         wrist_dev_l	          end_eff_tx	          end_eff_ty	          end_eff_tz	             goal_tx	             goal_ty	             goal_tz	            elbow_tx	            elbow_ty	            elbow_tz	
          0.01000000	          0.00000000	          0.00000000	        315.57830150	        509.13753631	        371.66539235	          0.00000000	          0.00000000	          0.00000000	          0.00000000	          0.00000000	          0.00000000	          0.00000000	          0.00000000	          0.00000000	          0.00000000	          0.00000000	          0.00000000	          0.00000000	          0.00000000	          7.44799423	          0.40020499	         -8.64355850	          3.38792086	        -25.77413368	         23.71662903	         46.64069366	        103.63158417	          0.00000000	          0.00000000	          0.00000000	          0.00000000	          0.00000000	          0.00000000	          0.00000000	          0.00000000	          0.00000000	        559.04558971	        130.82460142	        573.43088234	        884.98255595	        674.51418828	        572.08646938	        218.98099019	        333.02970799	        664.36222213	
          0.02000000	          0.00000000	          0.00000000	        315.62609672	        509.14209319	        371.67320498	          0.00000000	          0.00000000	          0.00000000	          0.00000000	          0.00000000	          0.00000000	          0.00000000	          0.00000000	          0.00000000	          0.00000000	          0.00000000	          0.00000000	          0.00000000	          0.00000000	          7.51864576	          0.37652016	         -8.61911774	          3.33877826	        -25.74438095	         23.74082565	         46.65277481	        103.75262451	          0.00000000	          0.00000000	          0.00000000	          0.00000000	          0.00000000	          0.00000000	          0.00000000	          0.00000000	          0.00000000	        558.99342162	        130.75668390	        572.90942727	        884.98570374	        674.54185584	        572.07759081	        219.11808072	        333.10506477	        664.46376837	
          0.03000000	          0.00000000	          0.00000000	        315.69310367	        509.17043359	        371.68693865	          0.00000000	          0.00000000	          0.00000000	          0.00000000	          0.00000000	          0.00000000	          0.00000000	          0.00000000	          0.00000000	          0.00000000	          0.00000000	          0.00000000	          0.00000000	          0.00000000	          7.46262026	          0.37651405	         -8.61294937	          3.41006231	        -25.70962143	         23.77067947	         46.67414093	        103.98732758	          0.00000000	          0.00000000	          0.00000000	          0.00000000	          0.00000000	          0.00000000	          0.00000000	          0.00000000	          0.00000000	        558.92819625	        130.70972369	        572.29410883	        884.98356494	        674.50765717	        572.07408758	        219.25836921	        333.14929242	        664.53582106	
          0.04000000	          0.00000000	          0.00000000	        315.76554013	        509.23698462	        371.71677611	          0.00000000	          0.00000000	          0.00000000	          0.00000000	          0.00000000	          0.00000000	          0.00000000	          0.00000000	          0.00000000	          0.00000000	          0.00000000	          0.00000000	          0.00000000	          0.00000000	          7.40056896	          0.37262604	         -8.61340714	          3.61160517	        -25.79715919	         23.81657219	         46.33640671	        105.07596588	          0.00000000	          0.00000000	          0.00000000	          0.00000000	          0.00000000	          0.00000000	          0.00000000	          0.00000000	          0.00000000	        560.36428362	        131.19658235	        573.45051630	        884.93670798	        674.49612619	        572.09867684	        219.53280904	        333.40242166	        664.26980069	
          0.05000000	          0.00000000	          0.00000000	        315.81925498	        509.28397595	        371.72104097	          0.00000000	          0.00000000	          0.00000000	          0.00000000	          0.00000000	          0.00000000	          0.00000000	          0.00000000	          0.00000000	          0.00000000	          0.00000000	          0.00000000	          0.00000000	          0.00000000	          7.35120535	          0.36274654	         -8.61467648	          3.68119669	        -25.75509453	         23.90242958	         46.34770584	        105.36270905	          0.00000000	          0.00000000	          0.00000000	          0.00000000	          0.00000000	          0.00000000	          0.00000000	          0.00000000	          0.00000000	        560.27241525	        131.13686289	        572.79566843	        884.97651082	        674.55300283	        572.09277301	        219.73766774	        333.46151732	        664.27821137	
          0.06000000	          0.00000000	          0.00000000	        315.77331259	        509.24043721	        371.75188667	          0.00000000	          0.00000000	          0.00000000	          0.00000000	          0.00000000	          0.00000000	          0.00000000	          0.00000000	          0.00000000	          0.00000000	          0.00000000	          0.00000000	          0.00000000	          0.00000000	          7.34149361	          0.41186863	         -8.65831089	          3.80892038	        -25.80153656	         23.90076256	         46.23857117	        105.48062897	          0.00000000	          0.00000000	          0.00000000	          0.00000000	          0.00000000	          0.00000000	          0.00000000	          0.00000000	          0.00000000	        560.45452115	        131.22597486	        572.37447976	        885.03638968	        674.48459399	        572.00547729	        220.02898607	        333.57041197	        664.26403894	
          0.07000000	          0.00000000	          0.00000000	        315.82272905	        509.29279180	        371.75950596	          0.00000000	          0.00000000	          0.00000000	          0.00000000	          0.00000000	          0.00000000	          0.00000000	          0.00000000	          0.00000000	          0.00000000	          0.00000000	          0.00000000	          0.00000000	          0.00000000	          7.31508493	          0.41485888	         -8.65899086	          3.85663176	        -25.79590607	         24.04789162	         46.21821594	        105.61250305	          0.00000000	          0.00000000	          0.00000000	          0.00000000	          0.00000000	          0.00000000	          0.00000000	          0.00000000	          0.00000000	        560.39328467	        131.03432485	        571.84722275	        885.07755149	        674.53138720	        572.00301513	        220.30005200	        333.71674030	        664.40066950	
